<svg width="384" height="64" viewBox="0 0 384 64" fill="none" xmlns="http://www.w3.org/2000/svg">
<path d="M21.1679 9.668C22.4843 6.11066 27.5157 6.11067 28.8321 9.66801L33.1767 21.4092C33.5906 22.5276 34.4724 23.4094 35.5908 23.8233L47.332 28.1679C50.8893 29.4843 50.8893 34.5157 47.332 35.8321L35.5908 40.1767C34.4724 40.5906 33.5906 41.4724 33.1767 42.5908L28.8321 54.332C27.5157 57.8893 22.4843 57.8893 21.1679 54.332L16.8233 42.5908C16.4094 41.4724 15.5276 40.5906 14.4092 40.1767L2.668 35.8321C-0.889338 34.5157 -0.889333 29.4843 2.66801 28.1679L14.4092 23.8233C15.5276 23.4094 16.4094 22.5276 16.8233 21.4092L21.1679 9.668Z" fill="#191A23"/>
<path d="M22.7008 18.6008C23.4906 16.4664 26.5094 16.4664 27.2992 18.6008L29.906 25.6455C30.1543 26.3166 30.6834 26.8457 31.3545 27.094L38.3992 29.7008C40.5336 30.4906 40.5336 33.5094 38.3992 34.2992L31.3545 36.906C30.6834 37.1543 30.1543 37.6834 29.906 38.3545L27.2992 45.3992C26.5094 47.5336 23.4906 47.5336 22.7008 45.3992L20.094 38.3545C19.8457 37.6834 19.3166 37.1543 18.6455 36.906L11.6008 34.2992C9.4664 33.5094 9.4664 30.4906 11.6008 29.7008L18.6455 27.094C19.3166 26.8457 19.8457 26.3166 20.094 25.6455L22.7008 18.6008Z" fill="#B9FF66"/>
<path d="M66.82 53V47.24H72.46V16.76H66.82V11H88.12C90.64 11 92.84 11.44 94.72 12.32C96.6 13.16 98.06 14.38 99.1 15.98C100.18 17.54 100.72 19.4 100.72 21.56V22.16C100.72 24.08 100.36 25.66 99.64 26.9C98.92 28.14 98.04 29.1 97 29.78C96 30.46 95.04 30.94 94.12 31.22V32.18C95.04 32.42 96.02 32.9 97.06 33.62C98.14 34.3 99.04 35.26 99.76 36.5C100.52 37.74 100.9 39.36 100.9 41.36V41.96C100.9 44.28 100.36 46.26 99.28 47.9C98.2 49.54 96.7 50.8 94.78 51.68C92.9 52.56 90.72 53 88.24 53H66.82ZM79 47.12H87.46C89.62 47.12 91.32 46.6 92.56 45.56C93.8 44.52 94.42 43.08 94.42 41.24V40.7C94.42 38.86 93.8 37.42 92.56 36.38C91.36 35.34 89.66 34.82 87.46 34.82H79V47.12ZM79 28.88H87.46C89.5 28.88 91.14 28.38 92.38 27.38C93.62 26.34 94.24 24.94 94.24 23.18V22.58C94.24 20.82 93.62 19.44 92.38 18.44C91.18 17.4 89.54 16.88 87.46 16.88H79V28.88ZM108.345 53V23.42H114.405V26.9H115.365C115.845 25.66 116.605 24.76 117.645 24.2C118.725 23.6 120.045 23.3 121.605 23.3H125.145V28.88H121.365C119.365 28.88 117.725 29.44 116.445 30.56C115.165 31.64 114.525 33.32 114.525 35.6V53H108.345ZM139.908 53.84C137.788 53.84 135.888 53.48 134.208 52.76C132.568 52.04 131.248 50.98 130.248 49.58C129.288 48.18 128.808 46.48 128.808 44.48C128.808 42.44 129.288 40.76 130.248 39.44C131.248 38.08 132.588 37.06 134.268 36.38C135.988 35.7 137.928 35.36 140.088 35.36H149.088V33.44C149.088 31.72 148.568 30.34 147.528 29.3C146.488 28.26 144.888 27.74 142.728 27.74C140.608 27.74 138.988 28.24 137.868 29.24C136.748 30.24 136.008 31.54 135.648 33.14L129.888 31.28C130.368 29.68 131.128 28.24 132.168 26.96C133.248 25.64 134.668 24.58 136.428 23.78C138.188 22.98 140.308 22.58 142.788 22.58C146.628 22.58 149.648 23.56 151.848 25.52C154.048 27.48 155.148 30.26 155.148 33.86V46.04C155.148 47.24 155.708 47.84 156.828 47.84H159.348V53H154.728C153.328 53 152.188 52.64 151.308 51.92C150.428 51.2 149.988 50.22 149.988 48.98V48.8H149.088C148.768 49.4 148.288 50.1 147.648 50.9C147.008 51.7 146.068 52.4 144.828 53C143.588 53.56 141.948 53.84 139.908 53.84ZM140.808 48.74C143.288 48.74 145.288 48.04 146.808 46.64C148.328 45.2 149.088 43.24 149.088 40.76V40.16H140.448C138.808 40.16 137.488 40.52 136.488 41.24C135.488 41.92 134.988 42.94 134.988 44.3C134.988 45.66 135.508 46.74 136.548 47.54C137.588 48.34 139.008 48.74 140.808 48.74ZM165.357 53V23.42H171.537V53H165.357ZM168.477 19.4C167.277 19.4 166.257 19.02 165.417 18.26C164.617 17.46 164.217 16.44 164.217 15.2C164.217 13.96 164.617 12.96 165.417 12.2C166.257 11.4 167.277 11 168.477 11C169.717 11 170.737 11.4 171.537 12.2C172.337 12.96 172.737 13.96 172.737 15.2C172.737 16.44 172.337 17.46 171.537 18.26C170.737 19.02 169.717 19.4 168.477 19.4ZM180.708 53V23.42H186.768V27.86H187.728C188.288 26.66 189.288 25.54 190.728 24.5C192.168 23.46 194.308 22.94 197.148 22.94C199.388 22.94 201.368 23.44 203.088 24.44C204.848 25.44 206.228 26.86 207.228 28.7C208.228 30.5 208.728 32.68 208.728 35.24V53H202.548V35.72C202.548 33.16 201.908 31.28 200.628 30.08C199.348 28.84 197.588 28.22 195.348 28.22C192.788 28.22 190.728 29.06 189.168 30.74C187.648 32.42 186.888 34.86 186.888 38.06V53H180.708ZM233.223 53.84C228.063 53.84 223.963 52.4 220.923 49.52C217.883 46.6 216.363 42.4 216.363 36.92V27.08C216.363 21.6 217.883 17.42 220.923 14.54C223.963 11.62 228.063 10.16 233.223 10.16C238.383 10.16 242.483 11.62 245.523 14.54C248.603 17.42 250.143 21.6 250.143 27.08V36.92C250.143 42.4 248.603 46.6 245.523 49.52C242.483 52.4 238.383 53.84 233.223 53.84ZM233.223 48.02C236.543 48.02 239.103 47.06 240.903 45.14C242.703 43.18 243.603 40.52 243.603 37.16V26.84C243.603 23.48 242.703 20.84 240.903 18.92C239.103 16.96 236.543 15.98 233.223 15.98C229.983 15.98 227.443 16.96 225.603 18.92C223.763 20.84 222.843 23.48 222.843 26.84V37.16C222.843 40.52 223.763 43.18 225.603 45.14C227.443 47.06 229.983 48.02 233.223 48.02ZM235.803 63.26C234.083 63.26 232.683 62.72 231.603 61.64C230.563 60.6 230.043 59.18 230.043 57.38V53H236.403V56.3C236.403 57.5 236.963 58.1 238.083 58.1H241.803V63.26H235.803ZM269.334 53.54C267.094 53.54 265.094 53.04 263.334 52.04C261.574 51.04 260.194 49.62 259.194 47.78C258.194 45.94 257.694 43.74 257.694 41.18V23.42H263.874V40.76C263.874 43.32 264.514 45.22 265.794 46.46C267.074 47.66 268.854 48.26 271.134 48.26C273.654 48.26 275.674 47.42 277.194 45.74C278.754 44.02 279.534 41.56 279.534 38.36V23.42H285.714V53H279.654V48.56H278.694C278.134 49.76 277.134 50.9 275.694 51.98C274.254 53.02 272.134 53.54 269.334 53.54ZM308.409 53.84C305.409 53.84 302.789 53.22 300.549 51.98C298.309 50.7 296.549 48.92 295.269 46.64C294.029 44.32 293.409 41.64 293.409 38.6V37.88C293.409 34.8 294.029 32.12 295.269 29.84C296.509 27.52 298.229 25.74 300.429 24.5C302.669 23.22 305.249 22.58 308.169 22.58C311.009 22.58 313.489 23.22 315.609 24.5C317.769 25.74 319.449 27.48 320.649 29.72C321.849 31.96 322.449 34.58 322.449 37.58V39.92H299.709C299.789 42.52 300.649 44.6 302.289 46.16C303.969 47.68 306.049 48.44 308.529 48.44C310.849 48.44 312.589 47.92 313.749 46.88C314.949 45.84 315.869 44.64 316.509 43.28L321.609 45.92C321.049 47.04 320.229 48.22 319.149 49.46C318.109 50.7 316.729 51.74 315.009 52.58C313.289 53.42 311.089 53.84 308.409 53.84ZM299.769 35.18H316.149C315.989 32.94 315.189 31.2 313.749 29.96C312.309 28.68 310.429 28.04 308.109 28.04C305.789 28.04 303.889 28.68 302.409 29.96C300.969 31.2 300.089 32.94 299.769 35.18ZM342.008 53.84C338.248 53.84 335.128 53 332.648 51.32C330.168 49.64 328.648 47.1 328.088 43.7L333.848 42.32C334.168 43.96 334.708 45.26 335.468 46.22C336.228 47.18 337.168 47.86 338.288 48.26C339.448 48.66 340.688 48.86 342.008 48.86C343.968 48.86 345.468 48.48 346.508 47.72C347.588 46.96 348.128 45.98 348.128 44.78C348.128 43.58 347.628 42.7 346.628 42.14C345.628 41.58 344.148 41.12 342.188 40.76L340.148 40.4C338.148 40.04 336.328 39.52 334.688 38.84C333.048 38.16 331.748 37.22 330.788 36.02C329.828 34.82 329.348 33.28 329.348 31.4C329.348 28.6 330.388 26.44 332.468 24.92C334.548 23.36 337.308 22.58 340.748 22.58C344.068 22.58 346.788 23.34 348.908 24.86C351.068 26.34 352.468 28.36 353.108 30.92L347.348 32.54C346.988 30.74 346.228 29.48 345.068 28.76C343.908 28 342.468 27.62 340.748 27.62C339.068 27.62 337.748 27.94 336.788 28.58C335.828 29.18 335.348 30.04 335.348 31.16C335.348 32.36 335.808 33.24 336.728 33.8C337.688 34.36 338.968 34.78 340.568 35.06L342.668 35.42C344.788 35.78 346.728 36.28 348.488 36.92C350.248 37.56 351.628 38.48 352.628 39.68C353.668 40.88 354.188 42.48 354.188 44.48C354.188 47.44 353.088 49.74 350.888 51.38C348.688 53.02 345.728 53.84 342.008 53.84ZM371.867 53C370.067 53 368.627 52.46 367.547 51.38C366.507 50.3 365.987 48.86 365.987 47.06V28.64H357.827V23.42H365.987V13.64H372.167V23.42H380.987V28.64H372.167V45.98C372.167 47.18 372.727 47.78 373.847 47.78H380.027V53H371.867Z" fill="#191A23"/>
</svg>
